<?xml version="1.0" encoding="UTF-8"?>
<svg id="Capa_1" data-name="Capa 1" xmlns="http://www.w3.org/2000/svg" viewBox="0 0 59 60">
  <defs>
    <style>
      .cls-1 {
        fill: #fff;
      }
    </style>
  </defs>
  <path class="cls-1" d="m43.72,25.81c.19,1.09.28,2.19.28,3.29,0,4.92-1.76,9.08-4.82,11.9h0c-2.68,2.47-6.36,3.9-10.72,3.9-8.93,0-16.18-7.24-16.18-16.18s7.24-16.18,16.18-16.18c4.02-.05,7.89,1.46,10.82,4.21l-4.62,4.62c-1.67-1.59-3.9-2.46-6.2-2.43-4.22,0-7.81,2.85-9.08,6.68-.68,2.01-.68,4.18,0,6.19h0c1.28,3.83,4.86,6.68,9.08,6.68,2.18,0,4.05-.56,5.5-1.54h0c1.7-1.13,2.87-2.9,3.23-4.92h-8.74v-6.23h15.26Z"/>
</svg>