<?xml version="1.0" encoding="UTF-8"?>
<svg id="Capa_1" data-name="Capa 1" xmlns="http://www.w3.org/2000/svg" viewBox="0 0 59 60">
  <defs>
    <style>
      .cls-1 {
        fill: #fff;
      }
    </style>
  </defs>
  <path class="cls-1" d="m36.88,30.51c0,3.83-3.12,6.95-6.95,6.95-1.9,0-3.64-.78-4.92-2.03-1.25-1.28-2.03-2.99-2.03-4.92,0-3.83,3.12-6.95,6.95-6.95s6.95,3.12,6.95,6.95Z"/>
  <path class="cls-1" d="m46.87,22.1c-.08-2.03-.42-3.15-.7-3.88-.39-.96-.83-1.67-1.56-2.39-.73-.73-1.43-1.17-2.39-1.56-.73-.29-1.85-.62-3.88-.7-2.19-.1-2.84-.13-8.4-.13h-1.87c-3.88,0-4.63.03-6.53.13-2.03.08-3.15.42-3.88.7-.96.39-1.67.83-2.39,1.56-.73.73-1.17,1.43-1.56,2.39-.29.73-.62,1.85-.7,3.88-.1,2.19-.13,2.84-.13,8.41s.03,6.22.13,8.4c.08,2.03.42,3.12.7,3.85.34.91.88,1.74,1.56,2.39.68.7,1.48,1.22,2.39,1.56.73.29,1.85.62,3.88.73,2.19.1,2.84.1,8.4.1s6.22,0,8.4-.1c2.03-.1,3.15-.44,3.88-.73.96-.36,1.67-.83,2.39-1.56.68-.65,1.22-1.48,1.56-2.37.26-.75.62-1.85.7-3.88.1-2.19.13-2.86.13-8.4s-.03-6.22-.13-8.41Zm-16.94,19.1h-.34c-5.91-.1-10.62-4.94-10.51-10.85.08-5.91,4.94-10.62,10.85-10.54,5.78.1,10.43,4.76,10.51,10.54.1,5.91-4.61,10.75-10.51,10.85Zm11.11-19.31c-1.38,0-2.5-1.12-2.5-2.5s1.12-2.5,2.5-2.5,2.5,1.12,2.5,2.5-1.12,2.5-2.5,2.5Z"/>
</svg>