<?xml version="1.0" encoding="UTF-8"?>
<svg id="Capa_1" data-name="Capa 1" xmlns="http://www.w3.org/2000/svg" viewBox="0 0 59 60">
  <defs>
    <style>
      .cls-1 {
        fill: #fff;
      }
    </style>
  </defs>
  <path class="cls-1" d="m46.99,27.93v1.28c0,5.05-.03,5.79-.13,7.93-.08,2.08-.45,3.2-.72,3.98-.35.91-.91,1.76-1.6,2.43-.75.75-1.47,1.23-2.46,1.6-.75.29-1.9.64-3.98.75-1.79.08-2.59.11-5.77.11h-.13v-12.31h4.11l.77-5.1h-4.89v-3.31c0-1.39.69-2.75,2.86-2.75h2.22v-4.35s-2-.35-3.92-.35c-4,0-6.62,2.46-6.62,6.89v3.87h-4.46v5.1h4.46v12.31h-.13c-3.15,0-3.95-.03-5.74-.11-2.08-.11-3.23-.45-3.98-.75-.93-.35-1.76-.88-2.46-1.6-.69-.67-1.25-1.52-1.6-2.46-.29-.75-.64-1.87-.72-3.95-.11-2.06-.13-2.8-.13-7.34v-2.54c0-4.57.03-5.31.13-7.37.08-2.08.43-3.23.72-3.98.4-.99.85-1.71,1.6-2.46.75-.75,1.47-1.2,2.46-1.6.75-.29,1.9-.64,3.98-.72,1.95-.11,2.72-.13,6.7-.13h3.26c4.51,0,5.23.03,7.29.13,2.08.08,3.23.43,3.98.72.99.4,1.71.85,2.46,1.6.75.75,1.2,1.47,1.6,2.46.29.75.64,1.9.72,3.98.11,2.16.13,2.86.13,8.04Z"/>
</svg>