<?xml version="1.0" encoding="UTF-8"?>
<svg id="Capa_1" data-name="Capa 1" xmlns="http://www.w3.org/2000/svg" viewBox="0 0 59 60">
  <defs>
    <style>
      .cls-1 {
        fill: #9e192c;
        fill-rule: evenodd;
      }

      .cls-2 {
        fill: none;
        stroke: #9e192c;
        stroke-miterlimit: 10;
      }
    </style>
  </defs>
  <path class="cls-1" d="m29.38,15.89c-6,0-10.86,4.86-10.86,10.86,0,6.41,7.26,18.19,10.86,18.19s10.86-11.78,10.86-18.19c0-6-4.86-10.86-10.86-10.86Zm3.73,9.6l-3.67,3.86c-.28.29-.66.45-1.07.45s-.78-.16-1.07-.45l-1.65-1.85c-.39-.4-.39-1.04,0-1.44.39-.4,1.03-.4,1.42,0l1.3,1.48,3.32-3.5c.39-.4,1.03-.4,1.42,0,.39.4.39,1.04,0,1.44Z"/>
  <circle class="cls-2" cx="29.38" cy="30.41" r="25.71"/>
</svg>