<?xml version="1.0" encoding="UTF-8"?>
<svg id="Capa_1" data-name="Capa 1" xmlns="http://www.w3.org/2000/svg" viewBox="0 0 59 60">
  <defs>
    <style>
      .cls-1 {
        fill: none;
        stroke: #9e192c;
        stroke-miterlimit: 10;
      }

      .cls-2 {
        fill: #9e192c;
      }
    </style>
  </defs>
  <circle class="cls-1" cx="30.03" cy="29.83" r="25.71"/>
  <path class="cls-2" d="m39.64,20.22c-2.55-2.55-6.01-3.99-9.61-3.97-7.48,0-13.58,6.09-13.58,13.57,0,2.55.72,5.05,2.08,7.22l.32.51-1.38,5.01,5.13-1.34.5.3c2.09,1.23,4.48,1.89,6.92,1.89,7.48,0,13.57-6.08,13.58-13.58.01-3.6-1.42-7.06-3.97-9.61Zm-1.62,15.45c-.35.95-1.97,1.82-2.75,1.94-.71.11-1.59.16-2.57-.17-.6-.19-1.35-.43-2.32-.86-4.1-1.77-6.77-5.89-6.98-6.16-.2-.28-1.68-2.21-1.68-4.22s1.05-3,1.42-3.41c.29-.31.68-.49,1.1-.5.26,0,.54,0,.78.01.25.01.59-.1.92.71.34.8,1.15,2.82,1.26,3.03.1.2.17.43.04.72-.14.26-.2.44-.41.67-.22.24-.43.54-.61.72-.2.2-.42.42-.19.83.25.41,1.07,1.75,2.27,2.84,1.57,1.39,2.88,1.82,3.29,2.02.41.2.65.18.89-.1.23-.28,1.02-1.2,1.29-1.6.26-.41.54-.34.91-.2.38.14,2.38,1.12,2.79,1.33.41.2.68.31.79.48.1.18.1.99-.24,1.95Z"/>
</svg>